<svg width="458" height="518" viewBox="0 0 458 518" fill="none" xmlns="http://www.w3.org/2000/svg">
<path d="M5 354.984V157.016C5 139.073 14.6143 122.506 30.1931 113.604L204.193 14.1754C219.565 5.3916 238.435 5.39161 253.807 14.1754L453 128V354.984C453 372.927 443.386 389.494 427.807 398.396L229 512L30.193 398.396C14.6143 389.494 5 372.927 5 354.984Z" fill="url(#paint0_linear_136_26)"/>
<path d="M453 128L253.807 14.1754C238.435 5.39161 219.565 5.3916 204.193 14.1754L30.1931 113.604C14.6143 122.506 5 139.073 5 157.016V354.984C5 372.927 14.6143 389.494 30.193 398.396L229 512M453 128V354.984C453 372.927 443.386 389.494 427.807 398.396L229 512M453 128L254.047 242.575C238.551 251.5 229 268.021 229 285.904V512" stroke="#111111" stroke-width="10"/>
<path d="M234 284V503.5L426.5 393.5C441 385.5 448 373 448 356V136.671L258 246C242.5 254.5 235 268.5 234 284Z" fill="#111111"/>
<path d="M304.7 327C304.7 343.2 299.3 355.3 288.5 363.3C283.3 367.1 277.9 370.1 272.3 372.3C266.9 374.3 261.6 375.3 256.4 375.3H191C185.8 375.3 180.4 374.3 174.8 372.3C169.4 370.1 164.1 367.1 158.9 363.3C153.7 359.3 149.7 354.4 146.9 348.6C144.1 342.6 142.7 335.4 142.7 327V184.5C142.7 176.5 144.1 169.5 146.9 163.5C149.7 157.3 153.7 152.3 158.9 148.5H158.6C163.8 145.1 169.2 142.3 174.8 140.1C180.4 137.9 185.8 136.8 191 136.8H256.4C261.6 136.8 267 137.9 272.6 140.1C278.2 142.3 283.6 145.1 288.8 148.5H288.5C293.7 152.3 297.7 157.3 300.5 163.5C303.3 169.5 304.7 176.5 304.7 184.5V205.2C304.7 214.8 298.7 219.6 286.7 219.6C274.9 219.6 269 214.8 269 205.2V187.2C269 182.2 267.5 177.6 264.5 173.4C261.5 169.2 256.3 167.1 248.9 167.1H198.5C191.1 167.1 185.9 169.2 182.9 173.4C179.9 177.6 178.4 182.2 178.4 187.2V324.6C178.4 329.8 179.9 334.5 182.9 338.7C185.9 342.9 191.1 345 198.5 345H248.9C256.3 345 261.5 342.9 264.5 338.7C267.5 334.5 269 329.8 269 324.6V307.2C269 297.8 274.9 293.1 286.7 293.1C298.7 293.1 304.7 297.8 304.7 307.2V327Z" fill="#F0F0F0"/>
<defs>
<linearGradient id="paint0_linear_136_26" x1="229" y1="512" x2="229" y2="0" gradientUnits="userSpaceOnUse">
<stop stop-color="#042B59"/>
<stop offset="1" stop-color="#027DFD"/>
</linearGradient>
</defs>
</svg>
